{"glyphs":{":":{"x_min":0,"x_max":267,"ha":267,"o":""},"$":{"x_min":0,"x_max":431,"ha":431,"o":"m 249 -2 q 245 -4 243 -8 l 238 -64 q 237 -69 233 -72 q 229 -76 224 -76 l 146 -76 q 141 -76 138 -72 q 135 -69 136 -64 l 144 -6 q 144 -2 140 -1 q 88 13 58 53 q 29 93 29 148 q 29 157 31 175 l 35 204 q 36 209 40 212 q 43 216 48 216 l 159 216 q 170 216 170 204 l 167 182 q 166 178 166 170 q 166 144 179 128 q 192 113 213 113 q 239 113 258 134 q 276 156 276 188 q 276 214 259 234 q 242 254 194 293 q 154 325 129 350 q 104 376 86 412 q 69 447 69 493 q 69 573 113 629 q 157 685 227 702 q 231 703 231 708 l 238 773 q 239 778 243 782 q 247 785 252 785 l 329 785 q 334 785 337 782 q 340 778 339 773 l 330 708 q 330 703 334 702 q 388 688 418 646 q 449 605 449 544 q 449 536 447 516 l 444 492 q 443 487 439 484 q 435 480 430 480 l 319 480 q 314 480 311 484 q 308 487 309 492 l 312 519 q 313 523 313 532 q 313 557 300 572 q 288 587 266 587 q 240 587 222 566 q 205 544 205 508 q 205 484 222 462 q 238 441 282 404 q 332 362 358 336 q 383 311 398 281 q 413 251 413 212 q 413 204 411 184 q 401 110 358 61 q 314 12 249 -2 z"},"?":{"x_min":0,"x_max":424,"ha":424,"o":"m 140 234 l 144 266 q 150 316 174 346 q 198 377 240 410 q 277 440 295 464 q 313 488 313 524 q 313 550 300 566 q 288 581 266 581 q 238 581 219 560 q 200 539 196 506 l 194 490 q 193 479 181 479 l 68 484 q 63 484 60 488 q 57 491 58 496 l 59 506 q 66 566 98 612 q 129 659 178 684 q 226 710 285 710 q 363 710 408 666 q 452 622 452 547 q 452 537 450 515 q 445 471 429 440 q 413 408 394 388 q 374 369 344 344 q 312 318 297 300 q 282 283 279 257 l 276 234 q 275 229 272 226 q 268 222 263 222 l 150 222 q 145 222 142 226 q 139 229 140 234 z m 112 66 q 112 104 137 130 q 162 155 198 155 q 229 155 248 136 q 267 118 267 87 q 267 49 241 24 q 215 -2 179 -2 q 149 -2 130 17 q 112 36 112 66 z"},"<":{"x_min":0,"x_max":425,"ha":425,"o":"m 376 54 l 40 224 q 32 229 33 238 l 46 339 q 46 348 56 353 l 434 523 q 436 524 439 524 q 448 524 446 513 l 433 404 q 431 395 422 390 l 177 292 q 171 289 177 286 l 397 187 q 406 183 404 173 l 391 64 q 390 57 386 54 q 381 51 376 54 z"},"'":{"x_min":0,"x_max":165,"ha":165,"o":"m 66 485 l 80 687 q 80 699 92 699 l 206 699 q 218 699 215 687 l 177 485 q 174 473 163 473 l 77 473 q 72 473 68 476 q 65 480 66 485 z"},"=":{"x_min":0,"x_max":425,"ha":425,"o":""},"a":{"x_min":0,"x_max":432,"ha":432,"o":"m 313 514 l 427 514 q 432 514 435 510 q 438 507 437 502 l 377 12 q 376 7 372 4 q 369 0 364 0 l 250 0 q 245 0 242 4 q 239 7 240 12 l 244 40 q 244 44 242 44 q 240 44 238 41 q 202 -8 142 -8 q 84 -8 56 26 q 28 60 28 121 q 28 146 30 160 l 54 354 q 64 436 102 479 q 141 522 207 522 q 267 522 291 473 q 293 470 294 470 q 296 470 297 474 l 300 502 q 301 507 304 510 q 308 514 313 514 z m 260 171 l 281 343 q 284 369 273 385 q 262 401 242 401 q 222 401 208 385 q 193 369 190 343 l 168 171 q 165 145 176 129 q 187 113 207 113 q 227 113 242 129 q 256 145 260 171 z"},"L":{"x_min":0,"x_max":413,"ha":413,"o":"m 25 12 l 108 688 q 109 693 112 696 q 116 700 121 700 l 234 700 q 245 700 245 688 l 176 126 q 174 121 180 121 l 383 121 q 394 121 394 109 l 382 12 q 381 7 378 4 q 374 0 369 0 l 35 0 q 30 0 27 4 q 24 7 25 12 z"},"3":{"x_min":0,"x_max":423,"ha":423,"o":"m 400 222 q 393 174 387 147 q 370 75 318 34 q 267 -8 190 -8 q 110 -8 65 36 q 20 80 25 153 q 25 171 29 211 q 31 223 42 223 l 155 223 q 168 223 166 211 q 163 189 163 168 q 163 142 174 128 q 185 113 205 113 q 224 113 238 127 q 253 141 260 165 q 263 180 272 237 q 277 284 276 311 q 275 333 264 346 q 253 359 235 359 q 220 359 204 346 q 198 342 196 342 q 191 342 188 347 l 137 408 q 135 410 135 415 q 135 421 139 425 l 274 574 q 278 580 272 580 l 97 580 q 92 580 89 584 q 86 587 87 592 l 99 688 q 100 693 104 696 q 107 700 112 700 l 446 700 q 451 700 454 696 q 457 693 456 688 l 444 588 q 443 581 437 573 l 311 432 q 307 426 312 426 q 354 422 379 386 q 404 350 404 296 q 404 257 400 222 z"},";":{"x_min":0,"x_max":225,"ha":225,"o":"m 59 388 q 59 414 73 436 q 87 459 109 472 q 131 486 153 486 q 183 486 204 464 q 226 442 226 410 q 226 371 198 342 q 170 313 132 313 q 99 313 79 334 q 59 355 59 388 z m 7 -85 l 52 144 q 53 149 57 152 q 61 156 66 156 l 165 156 q 177 156 173 143 l 98 -86 q 95 -97 84 -97 l 16 -97 q 4 -97 7 -85 z"},"J":{"x_min":0,"x_max":439,"ha":439,"o":"m 14 151 q 14 160 16 180 l 25 249 q 26 254 30 258 q 33 261 38 261 l 151 261 q 162 261 162 249 l 153 178 q 152 174 152 165 q 152 142 164 128 q 177 113 198 113 q 223 113 240 131 q 258 149 261 178 l 324 688 q 325 693 328 696 q 332 700 337 700 l 451 700 q 456 700 459 696 q 462 693 461 688 l 398 180 q 388 95 328 44 q 269 -8 183 -8 q 105 -8 60 35 q 14 78 14 151 z"},"V":{"x_min":0,"x_max":474,"ha":474,"o":"m 143 11 l 87 687 l 87 689 q 87 700 99 700 l 224 700 q 235 700 235 689 l 248 249 q 248 245 250 245 q 253 245 254 249 l 373 689 q 376 700 387 700 l 508 700 q 520 700 516 687 l 293 11 q 290 0 279 0 l 154 0 q 143 0 143 11 z"},"\"":{"x_min":0,"x_max":335,"ha":335,"o":"m 67 483 l 79 686 q 81 698 92 698 l 198 698 q 210 698 207 686 l 170 483 q 169 471 156 471 l 78 471 q 73 471 70 474 q 66 478 67 483 z m 245 483 l 257 686 q 259 698 269 698 l 376 698 q 388 698 385 686 l 347 483 q 346 471 333 471 l 256 471 q 251 471 248 474 q 244 478 245 483 z"},"7":{"x_min":0,"x_max":395,"ha":395,"o":"m 63 14 l 290 573 q 292 579 286 579 l 180 579 q 176 579 174 574 l 170 539 q 169 534 166 530 q 162 527 157 527 l 70 527 q 59 527 59 539 l 79 688 q 80 693 84 696 q 87 700 92 700 l 440 700 q 445 700 448 696 q 451 693 450 688 l 438 586 q 436 578 434 572 l 205 10 q 200 0 191 0 l 71 0 q 65 0 63 4 q 61 8 63 14 z"},"S":{"x_min":0,"x_max":431,"ha":431,"o":"m 29 148 q 29 157 31 175 l 35 204 q 36 209 40 212 q 43 216 48 216 l 159 216 q 170 216 170 204 l 167 182 q 166 178 166 170 q 166 144 179 128 q 192 113 213 113 q 239 113 258 134 q 276 156 276 188 q 276 214 259 234 q 242 254 194 293 q 154 325 129 350 q 104 376 86 412 q 69 447 69 493 q 69 556 96 605 q 124 654 172 681 q 221 708 281 708 q 358 708 404 664 q 449 619 449 545 q 449 536 447 516 l 444 492 q 443 487 439 484 q 435 480 430 480 l 319 480 q 314 480 311 484 q 308 487 309 492 l 312 519 q 313 523 313 532 q 313 557 300 572 q 288 587 266 587 q 240 587 222 566 q 205 544 205 508 q 205 484 222 462 q 238 441 282 404 q 332 362 358 336 q 383 311 398 281 q 413 251 413 212 q 413 204 411 184 q 400 96 341 44 q 282 -8 197 -8 q 120 -8 74 35 q 29 78 29 148 z"},"}":{"x_min":0,"x_max":334,"ha":334,"o":"m 1 -147 q -4 -147 -7 -144 q -10 -140 -9 -135 l 3 -37 q 4 -32 8 -28 q 11 -25 16 -25 l 34 -25 q 54 -25 70 -8 q 85 10 89 38 l 109 203 q 121 298 178 327 q 182 330 178 333 q 138 355 138 421 q 138 443 140 455 l 160 616 q 161 620 161 628 q 161 651 150 665 q 138 679 120 679 l 103 679 q 98 679 95 682 q 92 686 93 691 l 105 788 q 105 793 109 796 q 113 800 118 800 l 199 800 q 250 800 278 774 q 306 748 306 700 q 306 693 304 677 l 279 474 q 278 466 278 452 q 278 392 323 386 q 335 385 333 373 l 322 286 q 320 274 309 273 q 253 265 244 184 l 218 -23 q 211 -82 176 -114 q 140 -147 83 -147 z"},"Z":{"x_min":0,"x_max":400,"ha":400,"o":"m 1 12 l 14 113 q 14 120 19 128 l 281 573 q 284 579 278 579 l 83 579 q 78 579 75 582 q 72 586 73 591 l 84 688 q 85 693 89 696 q 93 700 98 700 l 431 700 q 436 700 439 696 q 442 693 441 688 l 429 587 q 427 577 424 572 l 162 127 q 159 121 165 121 l 360 121 q 365 121 368 118 q 371 114 370 109 l 358 12 q 358 7 354 4 q 350 0 345 0 l 12 0 q 1 0 1 12 z"},"x":{"x_min":0,"x_max":426,"ha":426,"o":"m -1 14 l 139 254 l 140 260 l 58 500 l 57 504 q 57 514 69 514 l 193 514 q 203 514 206 505 l 239 392 q 242 386 245 392 l 306 505 q 311 514 321 514 l 444 514 q 451 514 453 510 q 455 507 451 500 l 311 260 q 310 257 311 254 l 392 14 l 393 10 q 393 0 381 0 l 258 0 q 248 0 246 9 l 212 126 q 210 134 207 126 l 145 9 q 141 0 130 0 l 6 0 q -1 0 -3 4 q -5 7 -1 14 z"},")":{"x_min":0,"x_max":302,"ha":302,"o":"m 266 751 q 330 623 330 454 q 330 402 322 335 q 306 205 264 99 q 221 -7 163 -83 q 159 -91 149 -91 l 37 -91 q 31 -91 28 -87 q 26 -83 30 -77 q 143 122 169 335 q 177 405 177 458 q 177 603 131 745 l 130 749 q 130 753 134 756 q 137 759 142 759 l 253 759 q 263 759 266 751 z"},"&":{"x_min":0,"x_max":584,"ha":584,"o":"m 534 8 q 534 0 524 0 l 401 0 q 391 0 387 7 l 367 38 q 365 42 361 39 q 284 -9 195 -9 q 114 -9 70 28 q 25 65 25 138 q 25 148 27 168 q 35 233 68 278 q 102 324 155 361 q 159 363 157 368 q 127 418 116 447 q 104 476 104 502 q 104 510 106 528 q 116 610 171 659 q 226 708 306 708 q 381 708 427 664 q 473 621 473 550 q 473 478 436 428 q 399 379 335 336 q 331 333 333 329 l 355 294 l 393 233 q 397 229 401 233 q 426 263 454 307 q 460 318 470 312 l 548 263 q 553 261 553 254 q 553 249 551 246 q 508 180 465 129 q 463 127 464 122 l 532 15 q 534 12 534 8 z m 241 508 q 241 496 246 482 q 252 467 266 440 q 269 437 273 439 q 335 484 335 534 q 335 555 324 568 q 312 580 294 580 q 270 580 256 560 q 241 540 241 508 z m 297 137 q 302 142 299 144 l 276 180 l 226 257 q 223 261 219 258 q 193 237 180 215 q 166 193 166 168 q 166 144 180 128 q 195 111 224 111 q 254 111 297 137 z"},"_":{"x_min":0,"x_max":408,"ha":408,"o":"m -4 12 l 6 95 q 7 100 10 104 q 14 107 19 107 l 377 107 q 382 107 385 104 q 388 100 387 95 l 377 12 q 376 7 372 4 q 369 0 364 0 l 6 0 q 1 0 -2 4 q -5 7 -4 12 z"},"v":{"x_min":0,"x_max":422,"ha":422,"o":"m 115 10 l 58 502 l 58 504 q 58 515 70 515 l 195 515 q 206 515 206 504 l 217 229 q 218 226 220 226 q 222 226 223 229 l 301 504 q 302 515 314 515 l 439 513 q 452 513 448 500 l 272 10 q 268 0 257 0 l 127 0 q 116 0 115 10 z"},"O":{"x_min":0,"x_max":458,"ha":458,"o":"m 35 158 q 35 168 37 190 l 76 510 q 87 600 147 654 q 207 708 296 708 q 377 708 424 664 q 471 619 471 542 q 471 532 469 510 l 430 190 q 419 100 358 46 q 298 -8 209 -8 q 128 -8 82 36 q 35 81 35 158 z m 292 184 l 333 516 q 334 520 334 528 q 334 555 320 571 q 306 587 282 587 q 255 587 236 568 q 218 548 214 516 l 173 184 q 172 180 172 172 q 172 145 186 129 q 200 113 223 113 q 251 113 270 132 q 288 152 292 184 z"},"(":{"x_min":0,"x_max":302,"ha":302,"o":"m 79 -83 q 15 42 15 215 q 15 273 22 332 q 38 463 80 568 q 123 674 181 751 q 186 759 196 759 l 308 759 q 314 759 316 755 q 318 751 315 745 q 202 549 176 333 q 168 263 168 208 q 168 63 214 -77 l 215 -81 q 215 -85 212 -88 q 208 -91 203 -91 l 92 -91 q 82 -91 79 -83 z"},"C":{"x_min":0,"x_max":450,"ha":450,"o":"m 35 157 q 35 167 37 189 l 77 513 q 87 602 146 655 q 206 708 294 708 q 374 708 420 664 q 466 619 466 543 q 466 533 464 513 l 462 502 q 461 497 458 494 q 454 490 449 490 l 335 485 q 324 485 325 496 l 328 522 q 329 526 329 534 q 329 558 316 572 q 302 587 279 587 q 254 587 236 569 q 218 551 214 522 l 172 177 q 171 173 171 166 q 171 142 184 128 q 198 113 220 113 q 246 113 264 130 q 282 148 286 177 l 289 204 q 290 209 294 212 q 297 216 302 216 l 415 211 q 420 211 423 208 q 426 204 425 199 l 424 189 q 413 99 353 46 q 293 -8 206 -8 q 127 -8 81 36 q 35 81 35 157 z"},"W":{"x_min":0,"x_max":668,"ha":668,"o":"m 133 11 l 85 687 l 85 689 q 85 700 97 700 l 215 700 q 226 700 226 689 l 237 329 q 238 325 240 325 q 242 325 243 329 l 340 689 q 343 700 354 700 l 452 700 q 463 700 463 689 l 476 329 q 476 325 478 325 q 481 325 482 329 l 575 689 q 578 700 589 700 l 704 700 q 716 700 713 687 l 507 11 q 504 0 493 0 l 388 0 q 377 0 377 11 l 365 381 q 365 385 363 385 q 361 385 359 381 l 262 11 q 259 0 248 0 l 145 0 q 133 0 133 11 z"},"A":{"x_min":0,"x_max":468,"ha":468,"o":"m 297 11 l 293 107 q 294 109 292 110 q 290 112 288 112 l 165 112 q 159 112 159 107 l 131 11 q 128 0 117 0 l 4 0 q -8 0 -4 13 l 221 689 q 224 700 235 700 l 366 700 q 376 700 378 689 l 436 13 l 436 10 q 436 0 425 0 l 308 0 q 297 0 297 11 z m 196 221 l 283 221 q 288 221 288 226 l 276 499 q 275 502 273 502 q 271 502 270 499 l 193 226 q 191 221 196 221 z"},"f":{"x_min":0,"x_max":289,"ha":289,"o":"m 311 502 l 302 427 q 301 422 298 418 q 294 415 289 415 l 235 415 q 230 415 230 410 l 181 12 q 180 7 176 4 q 173 0 168 0 l 55 0 q 50 0 47 4 q 44 7 45 12 l 94 410 q 94 415 90 415 l 61 415 q 50 415 50 427 l 60 502 q 61 507 64 510 q 68 514 73 514 l 102 514 q 107 514 107 519 l 111 546 q 122 636 170 670 q 219 705 314 703 l 318 703 q 323 703 326 700 q 329 696 328 691 l 318 611 q 317 606 313 602 q 309 599 304 599 l 302 599 q 253 598 245 537 l 243 519 q 243 514 247 514 l 301 514 q 306 514 309 510 q 312 507 311 502 z"},"Q":{"x_min":0,"x_max":447,"ha":447,"o":"m 459 537 q 459 527 457 503 l 419 197 q 410 127 372 76 q 335 25 277 4 q 273 3 272 -1 l 262 -86 q 261 -91 258 -94 q 254 -98 249 -98 l 135 -98 q 130 -98 127 -94 q 124 -91 125 -86 l 136 -1 q 136 3 132 4 q 87 22 62 64 q 36 106 36 163 q 36 185 38 197 l 75 503 q 86 595 146 652 q 205 708 291 708 q 369 708 414 662 q 459 615 459 537 z m 173 182 q 172 177 172 169 q 172 143 184 128 q 197 113 218 113 q 243 113 260 132 q 276 151 280 182 l 322 518 q 323 523 323 531 q 323 557 310 572 q 298 587 276 587 q 252 587 235 568 q 218 549 214 518 z"},"w":{"x_min":0,"x_max":595,"ha":595,"o":"m 102 11 l 58 502 l 58 504 q 58 515 70 515 l 178 515 q 189 515 189 504 l 197 230 q 197 227 200 227 q 202 227 203 230 l 279 504 q 282 515 293 515 l 389 515 q 400 515 400 504 l 412 229 q 413 226 415 226 q 417 227 418 230 l 493 504 q 496 515 507 515 l 613 513 q 625 513 621 500 l 457 11 q 454 0 443 0 l 333 0 q 321 0 321 11 l 311 265 q 310 268 308 268 q 307 268 305 265 l 234 11 q 231 0 220 0 l 113 0 q 108 0 105 3 q 102 6 102 11 z"},"-":{"x_min":0,"x_max":321,"ha":321,"o":"m 34 247 l 46 344 q 47 349 50 352 q 54 356 59 356 l 310 356 q 321 356 321 344 l 309 247 q 308 242 304 238 q 301 235 296 235 l 44 235 q 39 235 36 238 q 33 242 34 247 z"},"E":{"x_min":0,"x_max":425,"ha":425,"o":"m 439 579 l 236 579 q 231 579 231 574 l 211 416 q 211 411 215 411 l 332 411 q 337 411 340 408 q 343 404 342 399 l 330 302 q 329 297 326 294 q 322 290 317 290 l 201 290 q 195 290 195 285 l 176 126 q 174 121 180 121 l 382 121 q 387 121 390 118 q 394 114 393 109 l 381 12 q 380 7 376 4 q 373 0 368 0 l 35 0 q 30 0 27 4 q 24 7 25 12 l 108 688 q 109 693 112 696 q 116 700 121 700 l 454 700 q 459 700 462 696 q 465 693 464 688 l 452 591 q 451 586 448 582 q 444 579 439 579 z"},"s":{"x_min":0,"x_max":399,"ha":399,"o":"m 20 122 q 20 135 21 142 l 22 149 q 23 154 26 158 q 30 161 35 161 l 142 161 q 147 161 150 158 q 153 154 152 149 l 152 146 q 149 125 162 112 q 175 98 196 98 q 217 98 230 112 q 243 125 243 145 q 243 164 226 176 q 209 187 188 195 q 167 203 160 206 q 114 224 83 255 q 52 286 52 342 q 52 356 53 364 q 62 437 114 479 q 166 521 243 521 q 317 521 358 484 q 400 447 400 383 q 400 374 398 358 q 397 353 394 350 q 390 346 385 346 l 281 346 q 276 346 273 350 q 270 353 271 358 l 272 366 q 274 386 264 398 q 253 411 234 411 q 211 411 198 396 q 185 380 185 360 q 185 338 202 326 q 220 314 257 299 q 313 277 348 248 q 382 219 382 163 q 382 85 326 39 q 271 -7 183 -7 q 107 -7 64 28 q 20 62 20 122 z"},">":{"x_min":0,"x_max":425,"ha":425,"o":"m 19 53 q 10 53 12 64 l 25 173 q 27 183 36 187 l 281 286 q 287 289 281 292 l 60 390 q 53 394 53 404 l 67 513 q 68 520 72 523 q 76 526 82 523 l 418 353 q 426 348 425 339 l 412 238 q 412 229 402 224 l 24 54 q 22 53 19 53 z"},"l":{"x_min":0,"x_max":203,"ha":203,"o":"m 15 12 l 98 688 q 99 693 102 696 q 106 700 111 700 l 225 700 q 230 700 233 696 q 236 693 235 688 l 152 12 q 151 7 148 4 q 144 0 139 0 l 25 0 q 20 0 17 4 q 14 7 15 12 z"},"8":{"x_min":0,"x_max":427,"ha":427,"o":"m 355 362 q 385 341 396 303 q 405 275 405 238 q 405 215 403 202 q 398 158 376 110 q 349 55 301 24 q 253 -8 193 -8 q 133 -8 93 23 q 53 54 39 110 q 32 134 32 163 q 32 183 35 202 q 41 257 64 300 q 82 337 121 361 q 127 364 122 367 q 91 390 81 427 q 72 456 72 488 q 72 509 74 520 q 80 575 103 613 q 129 660 176 686 q 224 713 282 713 q 338 713 378 688 q 419 662 434 614 q 444 588 444 552 q 444 542 442 520 q 437 472 412 428 q 392 391 356 369 q 351 365 355 362 z m 207 507 q 206 500 206 488 q 206 477 208 461 q 209 441 219 429 q 229 417 245 417 q 262 417 275 429 q 288 441 294 462 q 303 481 306 506 q 307 512 307 523 q 307 538 304 550 q 302 569 292 580 q 282 592 267 592 q 250 592 238 580 q 225 569 218 548 q 210 532 207 507 z m 269 211 q 271 222 271 241 q 271 256 270 263 q 268 285 258 298 q 248 310 232 310 q 215 310 202 297 q 188 284 181 261 q 173 234 171 213 q 168 185 169 165 q 170 141 180 127 q 190 113 208 113 q 226 113 240 128 q 254 142 260 167 q 266 186 269 211 z"},"\\":{"x_min":0,"x_max":403,"ha":403,"o":"m 368 10 q 368 0 357 0 l 243 0 q 234 0 232 10 l 102 686 l 102 690 q 102 700 113 700 l 227 700 q 236 700 238 690 l 368 14 z"},"e":{"x_min":0,"x_max":423,"ha":423,"o":"m 392 213 l 178 213 q 176 213 174 212 q 173 210 173 208 l 168 171 q 165 146 176 130 q 188 113 208 113 q 226 113 240 126 q 253 138 259 157 q 263 167 273 167 l 384 161 q 389 161 392 158 q 394 154 393 148 q 377 71 327 32 q 277 -8 193 -8 q 114 -8 71 29 q 28 66 28 133 q 28 142 30 160 l 54 354 q 63 430 118 476 q 173 522 258 522 q 336 522 380 484 q 423 445 423 379 q 423 372 421 354 l 405 225 q 404 220 400 216 q 397 213 392 213 z m 190 344 l 185 305 q 185 300 189 300 l 273 300 q 275 300 276 302 q 278 303 278 305 l 283 344 q 286 369 274 385 q 263 401 243 401 q 223 401 208 385 q 193 369 190 344 z"},"b":{"x_min":0,"x_max":432,"ha":432,"o":"m 428 392 q 428 367 426 354 l 402 160 q 392 81 352 36 q 313 -8 246 -8 q 191 -8 164 30 q 162 32 160 32 q 158 31 158 28 l 156 12 q 155 7 152 4 q 148 0 143 0 l 29 0 q 24 0 21 4 q 18 7 19 12 l 102 688 q 103 693 106 696 q 110 700 115 700 l 229 700 q 234 700 237 696 q 240 693 239 688 l 214 485 l 214 484 q 214 484 214 484 q 215 483 215 483 q 219 483 224 488 q 260 522 311 522 q 369 522 398 488 q 428 455 428 392 z m 249 401 q 232 401 218 389 q 203 377 198 357 l 174 157 q 174 137 185 125 q 196 113 214 113 q 234 113 248 129 q 263 145 266 170 l 288 344 q 291 369 280 385 q 269 401 249 401 z"},"%":{"x_min":0,"x_max":743,"ha":743,"o":"m 90 530 q 90 577 114 618 q 138 660 178 684 q 217 709 262 709 q 319 709 356 669 q 393 629 393 570 q 393 523 369 482 q 345 442 306 418 q 267 393 223 393 q 165 393 128 432 q 90 471 90 530 z m 125 6 q 125 10 128 14 l 564 692 q 569 700 580 700 l 652 700 q 661 700 661 694 q 661 691 658 686 l 222 8 q 217 0 207 0 l 134 0 q 125 0 125 6 z m 320 563 q 320 594 301 614 q 282 635 253 635 q 217 635 190 606 q 163 578 163 539 q 163 507 182 486 q 202 466 232 466 q 267 466 294 495 q 320 524 320 563 z m 398 129 q 398 176 422 217 q 445 258 484 282 q 524 307 568 307 q 625 307 662 268 q 700 229 700 171 q 700 123 676 82 q 653 40 614 16 q 574 -9 529 -9 q 472 -9 435 30 q 398 70 398 129 z m 628 160 q 628 192 608 213 q 589 234 559 234 q 524 234 497 206 q 470 178 470 139 q 470 107 490 86 q 509 65 539 65 q 574 65 601 94 q 628 122 628 160 z"},"m":{"x_min":0,"x_max":655,"ha":655,"o":"m 648 390 q 648 370 645 347 l 604 12 q 603 7 600 4 q 596 0 591 0 l 477 0 q 472 0 469 4 q 466 7 467 12 l 507 338 q 508 343 508 353 q 508 376 498 388 q 489 401 472 401 q 451 401 437 384 q 423 368 419 338 l 379 12 q 378 7 374 4 q 371 0 366 0 l 253 0 q 248 0 245 4 q 242 7 243 12 l 283 338 q 284 343 284 353 q 284 376 274 388 q 265 401 248 401 q 227 401 213 384 q 199 368 195 338 l 155 12 q 154 7 150 4 q 147 0 142 0 l 28 0 q 23 0 20 4 q 17 7 18 12 l 78 502 q 79 507 82 510 q 86 514 91 514 l 205 514 q 210 514 213 510 q 216 507 215 502 l 213 489 q 213 482 219 486 q 241 506 265 514 q 289 522 310 522 q 386 522 412 460 q 412 459 414 459 q 416 459 421 465 q 445 497 476 510 q 506 522 535 522 q 592 522 620 488 q 648 453 648 390 z"},"#":{"x_min":0,"x_max":597,"ha":597,"o":"m 583 404 l 524 404 q 518 404 518 399 l 492 300 q 490 295 495 295 l 536 295 q 541 295 544 292 q 547 288 546 283 l 534 187 q 533 182 530 178 q 526 175 521 175 l 463 175 q 458 175 456 170 l 422 38 q 419 27 408 27 l 294 27 q 282 27 285 40 l 320 170 q 320 175 316 175 l 236 175 q 231 175 229 170 l 195 38 q 192 27 181 27 l 67 27 q 55 27 58 40 l 93 170 q 93 175 89 175 l 47 175 q 42 175 39 178 q 36 182 37 187 l 48 283 q 49 288 52 292 q 56 295 61 295 l 122 295 q 124 295 126 296 q 128 298 128 300 l 154 399 q 154 404 150 404 l 109 404 q 104 404 101 408 q 98 411 99 416 l 111 513 q 111 518 115 522 q 119 525 124 525 l 183 525 q 189 525 189 530 l 224 662 q 227 673 238 673 l 351 673 q 363 673 360 660 l 326 530 q 326 525 329 525 l 410 525 q 416 525 416 530 l 451 662 q 454 673 465 673 l 578 673 q 590 673 587 660 l 553 530 q 553 525 556 525 l 598 525 q 603 525 606 522 q 609 518 608 513 l 596 416 q 595 411 592 408 q 588 404 583 404 z m 355 300 l 381 399 q 381 404 377 404 l 297 404 q 291 404 291 399 l 265 300 q 263 295 268 295 l 349 295 q 351 295 353 296 q 355 298 355 300 z"},",":{"x_min":0,"x_max":204,"ha":204,"o":"m -1 -85 l 49 147 q 52 158 62 158 l 161 158 q 174 158 170 145 l 90 -87 q 85 -98 76 -98 l 9 -98 q 4 -98 1 -94 q -2 -91 -1 -85 z"},"n":{"x_min":0,"x_max":433,"ha":433,"o":"m 427 392 q 427 372 424 351 l 383 12 q 382 7 378 4 q 375 0 370 0 l 256 0 q 251 0 248 4 q 245 7 246 12 l 286 340 q 287 345 287 355 q 287 401 250 401 q 228 401 214 384 q 200 368 196 338 l 156 12 q 155 7 152 4 q 148 0 143 0 l 29 0 q 24 0 21 4 q 18 7 19 12 l 79 502 q 80 507 84 510 q 87 514 92 514 l 206 514 q 211 514 214 510 q 217 507 216 502 l 214 483 l 214 482 q 214 480 216 480 q 219 481 222 484 q 259 522 313 522 q 370 522 398 488 q 427 455 427 392 z"},"h":{"x_min":0,"x_max":433,"ha":433,"o":"m 427 392 q 427 372 424 351 l 383 12 q 382 7 378 4 q 375 0 370 0 l 256 0 q 251 0 248 4 q 245 7 246 12 l 286 340 q 287 345 287 355 q 287 401 250 401 q 228 401 214 384 q 200 368 196 338 l 156 12 q 155 7 152 4 q 148 0 143 0 l 29 0 q 24 0 21 4 q 18 7 19 12 l 102 688 q 103 693 106 696 q 110 700 115 700 l 229 700 q 234 700 237 696 q 240 693 239 688 l 214 483 l 214 482 q 214 480 216 480 q 219 481 222 484 q 259 522 313 522 q 370 522 398 488 q 427 455 427 392 z"},"z":{"x_min":0,"x_max":362,"ha":362,"o":"m 0 12 l 13 120 q 13 128 19 135 l 200 381 q 203 387 198 387 l 63 387 q 58 387 55 390 q 52 394 53 399 l 66 502 q 66 507 70 510 q 74 514 79 514 l 371 514 q 376 514 379 510 q 382 507 381 502 l 368 395 q 367 388 362 380 l 175 134 q 171 128 177 128 l 329 128 q 334 128 337 124 q 340 121 339 116 l 326 12 q 326 7 322 4 q 318 0 313 0 l 10 0 q 5 0 2 4 q -1 7 0 12 z"},"B":{"x_min":0,"x_max":456,"ha":456,"o":"m 218 0 l 35 0 q 30 0 27 4 q 24 7 25 12 l 108 688 q 109 693 112 696 q 116 700 121 700 l 283 700 q 371 700 420 660 q 468 621 468 543 q 468 533 466 509 q 454 411 382 365 q 378 362 381 359 q 439 313 439 228 q 439 219 437 197 q 427 102 366 51 q 306 0 218 0 z m 231 574 l 211 417 q 211 412 215 412 l 250 412 q 288 412 310 439 q 331 466 331 514 q 331 546 316 562 q 300 579 271 579 l 236 579 q 231 579 231 574 z m 303 214 q 304 221 304 235 q 304 270 289 290 q 274 310 247 310 l 203 310 q 199 310 197 305 l 176 127 q 174 122 180 122 l 223 122 q 255 122 276 146 q 297 170 303 214 z"},"K":{"x_min":0,"x_max":476,"ha":476,"o":"m 25 12 l 108 688 q 109 693 112 696 q 116 700 121 700 l 234 700 q 245 700 245 688 l 214 436 q 213 432 216 432 q 218 431 219 435 l 376 691 q 381 700 391 700 l 511 700 q 518 700 520 696 q 522 693 518 686 l 339 398 q 338 397 338 396 q 337 394 337 392 l 443 14 l 444 10 q 444 0 433 0 l 311 0 q 301 0 299 9 l 230 271 q 230 274 228 274 q 225 273 223 271 l 189 219 q 188 218 187 216 q 186 215 186 213 l 162 12 q 161 7 157 4 q 153 0 148 0 l 35 0 q 30 0 27 4 q 24 7 25 12 z"},"R":{"x_min":0,"x_max":457,"ha":457,"o":"m 279 10 l 238 286 q 236 290 233 290 l 201 290 q 195 290 195 285 l 162 12 q 161 7 157 4 q 153 0 148 0 l 35 0 q 30 0 27 4 q 24 7 25 12 l 108 688 q 109 693 112 696 q 116 700 121 700 l 317 700 q 389 700 432 652 q 475 605 475 526 q 475 502 473 489 q 466 431 438 386 q 411 340 369 315 q 367 314 366 312 q 365 311 366 309 l 419 14 l 419 12 q 419 7 416 4 q 412 0 407 0 l 291 0 q 281 0 279 10 z m 231 574 l 210 403 q 208 398 214 398 l 257 398 q 291 398 314 428 q 337 458 337 507 q 337 540 322 560 q 306 579 280 579 l 236 579 q 231 579 231 574 z"},"T":{"x_min":0,"x_max":454,"ha":454,"o":"m 496 688 l 484 591 q 483 586 480 582 q 476 579 471 579 l 349 579 q 347 579 346 578 q 344 576 344 574 l 275 12 q 274 7 270 4 q 267 0 262 0 l 148 0 q 143 0 140 4 q 137 7 138 12 l 207 574 q 209 579 203 579 l 87 579 q 76 579 76 591 l 88 688 q 89 693 92 696 q 96 700 101 700 l 486 700 q 491 700 494 696 q 497 693 496 688 z"},"P":{"x_min":0,"x_max":451,"ha":451,"o":"m 474 526 q 474 501 472 488 q 461 395 406 339 q 350 283 271 283 l 199 283 q 195 283 193 278 l 161 12 q 160 7 156 4 q 152 0 147 0 l 34 0 q 29 0 26 4 q 23 7 24 12 l 107 689 q 108 694 112 698 q 115 701 120 701 l 316 701 q 389 701 432 653 q 474 605 474 526 z m 336 505 q 336 540 320 560 q 305 579 278 579 l 235 579 q 230 579 230 574 l 208 398 q 208 393 212 393 l 255 393 q 290 393 313 423 q 336 453 336 505 z"},"|":{"x_min":0,"x_max":180,"ha":180,"o":"m -6 -68 l 94 748 q 95 753 98 756 q 102 760 107 760 l 220 760 q 231 760 231 748 l 130 -68 q 130 -73 126 -76 q 122 -80 117 -80 l 4 -80 q -1 -80 -4 -76 q -7 -73 -6 -68 z"},"t":{"x_min":0,"x_max":282,"ha":282,"o":"m 284 415 l 229 415 q 227 415 226 414 q 224 412 224 410 l 195 172 q 194 167 194 158 q 194 137 204 129 q 213 121 231 122 l 238 122 q 243 122 246 118 q 249 115 248 110 l 236 12 q 235 7 232 4 q 228 0 223 0 l 184 0 q 120 0 87 20 q 54 39 54 93 q 54 100 56 118 l 92 410 q 92 415 88 415 l 56 415 q 51 415 48 418 q 45 422 46 427 l 55 502 q 56 507 60 510 q 63 514 68 514 l 100 514 q 105 514 105 519 l 119 630 q 120 635 124 638 q 127 642 132 642 l 241 642 q 246 642 249 638 q 252 635 251 630 l 237 519 q 237 514 242 514 l 296 514 q 301 514 304 510 q 307 507 306 502 l 297 427 q 296 422 292 418 q 289 415 284 415 z"},"M":{"x_min":0,"x_max":531,"ha":531,"o":"m 434 700 l 547 700 q 552 700 555 696 q 558 693 557 688 l 474 12 q 473 7 470 4 q 466 0 461 0 l 347 0 q 342 0 339 4 q 336 7 337 12 l 392 461 q 393 465 391 465 q 389 465 387 462 l 294 324 q 288 316 285 316 q 283 316 278 324 l 220 462 q 218 465 216 465 q 214 465 214 461 l 159 12 q 158 7 154 4 q 151 0 146 0 l 32 0 q 27 0 24 4 q 21 7 22 12 l 105 688 q 106 693 110 696 q 113 700 118 700 l 230 700 q 234 700 238 698 q 242 696 243 692 l 310 533 q 312 529 316 533 l 419 692 q 423 700 434 700 z"},"g":{"x_min":0,"x_max":428,"ha":428,"o":"m 314 514 l 428 514 q 433 514 436 510 q 439 507 438 502 l 379 24 q 366 -87 308 -147 q 250 -207 118 -207 q 91 -207 77 -206 q 65 -205 67 -193 l 79 -95 q 81 -82 92 -84 q 149 -86 180 -72 q 212 -59 226 -32 q 239 -5 244 39 q 245 42 243 42 q 241 42 239 39 q 218 15 192 6 q 166 -4 143 -4 q 85 -4 56 30 q 28 63 28 124 q 28 143 31 164 l 54 354 q 64 435 103 478 q 142 522 208 522 q 268 522 292 477 q 294 474 296 475 q 298 476 298 479 l 301 502 q 302 507 306 510 q 309 514 314 514 z m 261 175 l 282 344 q 285 369 274 385 q 262 401 242 401 q 222 401 208 385 q 193 369 190 344 l 169 175 q 166 149 176 134 q 187 118 208 118 q 228 118 243 134 q 258 150 261 175 z"},"j":{"x_min":0,"x_max":210,"ha":210,"o":"m 88 639 q 88 679 113 704 q 138 730 175 730 q 206 730 224 712 q 243 694 243 663 q 243 625 218 598 q 192 572 156 572 q 126 572 107 591 q 88 610 88 639 z m -97 -192 l -85 -95 q -83 -83 -72 -84 q -28 -85 -8 -64 q 12 -42 17 0 l 79 502 q 80 507 84 510 q 87 514 92 514 l 206 514 q 211 514 214 510 q 217 507 216 502 l 154 0 q 145 -75 126 -117 q 108 -159 59 -182 q 10 -205 -87 -204 q -99 -204 -97 -192 z"},"i":{"x_min":0,"x_max":212,"ha":212,"o":"m 89 639 q 89 679 114 704 q 139 730 176 730 q 207 730 225 712 q 243 694 243 664 q 243 626 218 599 q 192 572 157 572 q 127 572 108 591 q 89 610 89 639 z m 21 12 l 81 502 q 82 507 86 510 q 89 514 94 514 l 208 514 q 213 514 216 510 q 219 507 218 502 l 158 12 q 157 7 154 4 q 150 0 145 0 l 31 0 q 26 0 23 4 q 20 7 21 12 z"},"y":{"x_min":0,"x_max":410,"ha":410,"o":"m -11 -187 l 0 -95 q 2 -83 10 -83 q 60 -82 84 -66 q 107 -51 116 -3 l 116 3 l 55 502 l 55 504 q 55 515 67 515 l 189 515 q 201 515 201 504 l 209 207 q 209 203 212 203 q 214 203 215 207 l 294 504 q 297 515 308 515 l 430 513 q 436 513 438 510 q 441 506 439 500 l 247 -19 q 219 -92 192 -128 q 166 -165 122 -182 q 77 -199 -2 -199 l -7 -199 q -9 -199 -10 -196 q -12 -192 -11 -187 z"},"@":{"x_min":0,"x_max":737,"ha":737,"o":"m 735 405 q 735 362 723 312 q 698 213 640 158 q 582 102 506 102 q 441 102 411 143 q 408 146 404 142 q 387 121 364 112 q 341 103 321 103 q 274 103 250 130 q 226 157 226 196 q 226 203 228 219 q 231 236 244 292 q 253 334 260 352 q 276 413 308 442 q 339 470 388 470 q 400 470 414 465 q 428 460 437 448 q 444 443 444 450 l 445 453 q 448 464 459 464 l 527 464 q 540 464 536 451 l 493 276 q 489 259 489 243 q 489 218 500 206 q 512 193 531 193 q 563 193 587 226 q 611 260 626 315 q 636 352 636 389 q 636 471 586 519 q 537 567 453 567 q 385 567 321 530 q 257 494 210 430 q 163 365 143 283 q 133 240 133 202 q 133 142 157 100 q 181 58 220 37 q 260 16 306 16 q 370 16 432 56 q 437 59 439 59 q 444 59 447 53 l 472 -2 q 474 -6 474 -8 q 474 -15 467 -19 q 380 -74 279 -74 q 208 -74 153 -44 q 98 -13 67 44 q 36 102 36 179 q 36 232 50 287 q 75 393 140 477 q 204 561 292 608 q 380 655 473 655 q 551 655 610 624 q 670 593 702 536 q 735 480 735 405 z m 388 222 q 393 245 404 286 q 409 315 419 347 q 421 357 421 360 q 421 373 414 380 q 407 388 395 388 q 379 388 367 376 q 355 365 350 347 q 338 301 334 283 q 330 266 329 261 q 320 224 319 222 q 318 217 318 209 q 318 196 324 188 q 331 181 344 181 q 360 181 372 192 q 383 203 388 222 z"},".":{"x_min":0,"x_max":217,"ha":217,"o":""},"p":{"x_min":0,"x_max":435,"ha":435,"o":"m 432 391 q 432 368 430 355 l 406 160 q 396 79 356 36 q 316 -8 249 -8 q 227 -8 204 0 q 182 9 167 31 q 165 34 163 33 q 161 32 161 29 l 136 -174 q 135 -179 132 -182 q 128 -186 123 -186 l 9 -186 q 4 -186 1 -182 q -2 -179 -1 -174 l 82 502 q 83 507 86 510 q 90 514 95 514 l 209 514 q 214 514 217 510 q 220 507 219 502 l 217 486 l 217 485 q 217 485 218 484 q 218 484 218 484 q 222 484 227 489 q 264 522 314 522 q 373 522 402 488 q 432 453 432 391 z m 252 402 q 232 402 218 386 q 203 370 199 344 l 178 171 q 175 145 186 129 q 196 113 217 113 q 238 113 252 129 q 267 145 270 171 l 292 344 q 295 370 284 386 q 273 402 252 402 z"},"X":{"x_min":0,"x_max":461,"ha":461,"o":"m 8 14 l 180 347 q 182 350 181 353 l 90 686 l 89 690 q 89 700 100 700 l 217 700 q 226 700 228 690 l 270 498 q 270 495 272 495 q 275 495 276 498 l 364 690 q 369 700 378 700 l 493 700 q 500 700 502 696 q 503 692 500 686 l 328 353 q 326 350 327 347 l 418 14 l 419 10 q 419 6 416 3 q 412 0 407 0 l 292 0 q 283 0 281 10 l 239 201 q 239 204 237 204 q 235 204 233 201 l 144 10 q 139 0 130 0 l 15 0 q 8 0 6 4 q 5 8 8 14 z"},"*":{"x_min":0,"x_max":351,"ha":351,"o":"m 167 408 l 179 491 q 179 494 177 495 q 175 496 173 494 l 98 452 q 94 450 92 450 q 87 450 83 457 l 62 507 q 61 509 61 512 q 61 518 68 523 l 148 567 q 154 571 149 574 l 80 617 q 75 620 75 625 q 75 629 78 633 l 111 686 q 115 691 120 692 q 124 694 128 691 l 192 647 q 194 645 196 646 q 198 647 198 650 l 207 734 q 208 739 212 742 q 216 746 221 746 l 275 746 q 280 746 283 742 q 286 739 285 734 l 274 650 q 273 647 275 646 q 277 645 279 647 l 354 691 q 358 693 360 693 q 366 693 369 686 l 390 633 q 391 631 391 628 q 391 621 384 617 l 305 574 q 300 571 304 567 l 373 523 q 380 517 375 507 l 341 454 q 337 449 332 448 q 328 447 324 450 l 260 494 q 258 496 256 495 q 255 494 254 491 l 245 408 q 244 403 240 400 q 237 396 232 396 l 178 396 q 167 396 167 408 z"},"Y":{"x_min":0,"x_max":460,"ha":460,"o":"m 143 13 l 175 273 q 175 274 176 276 q 176 277 175 279 l 89 686 l 89 689 q 89 694 92 697 q 95 700 100 700 l 220 700 q 231 700 232 690 l 263 451 q 263 448 266 448 q 268 448 269 451 l 358 690 q 362 700 373 700 l 492 700 q 498 700 500 696 q 503 693 500 686 l 314 279 q 312 276 312 273 l 280 13 q 279 8 276 4 q 272 1 267 1 l 153 1 q 148 1 145 4 q 142 8 143 13 z"},"c":{"x_min":0,"x_max":421,"ha":421,"o":"m 29 135 q 29 151 30 160 l 54 354 q 63 430 118 476 q 173 522 258 522 q 336 522 380 484 q 423 445 423 382 q 423 367 422 360 l 419 342 q 418 337 414 334 q 411 330 406 330 l 292 325 q 281 325 282 337 l 283 349 q 286 371 274 386 q 263 401 243 401 q 222 401 208 385 q 193 369 190 343 l 168 171 q 165 145 176 129 q 187 113 208 113 q 228 113 243 128 q 258 144 261 165 l 262 178 q 263 183 267 186 q 271 190 276 190 l 389 189 q 394 189 397 186 q 400 182 399 177 l 396 154 q 387 80 332 36 q 278 -8 193 -8 q 115 -8 72 30 q 29 68 29 135 z"},"!":{"x_min":0,"x_max":271,"ha":271,"o":"m 92 252 l 131 688 q 132 693 136 696 q 139 700 144 700 l 258 700 q 263 700 266 696 q 269 693 268 688 l 201 252 q 200 247 196 244 q 193 240 188 240 l 102 240 q 97 240 94 244 q 91 247 92 252 z m 49 68 q 49 108 74 134 q 99 159 136 159 q 167 159 185 141 q 203 123 203 93 q 203 55 178 28 q 152 1 117 1 q 87 1 68 20 q 49 39 49 68 z"},"/":{"x_min":0,"x_max":403,"ha":403,"o":"m 0 14 l 295 690 q 300 700 309 700 l 423 700 q 429 700 432 696 q 434 692 431 686 l 135 10 q 130 0 121 0 l 8 0 q 2 0 0 4 q -3 7 0 14 z"},"[":{"x_min":0,"x_max":334,"ha":334,"o":"m -9 -135 l 105 788 q 105 793 109 796 q 113 800 118 800 l 316 800 q 321 800 324 796 q 327 793 326 788 l 314 691 q 313 686 310 682 q 306 679 301 679 l 233 679 q 229 679 227 674 l 142 -20 q 142 -25 146 -25 l 214 -25 q 219 -25 222 -28 q 225 -32 224 -37 l 212 -135 q 211 -140 208 -144 q 204 -147 199 -147 l 1 -147 q -4 -147 -7 -144 q -10 -140 -9 -135 z"},"6":{"x_min":0,"x_max":427,"ha":427,"o":"m 412 218 l 403 158 q 390 79 336 36 q 281 -8 198 -8 q 120 -8 77 32 q 34 72 35 151 q 33 176 38 206 l 76 529 q 86 611 142 660 q 199 708 284 708 q 356 708 399 668 q 442 627 442 558 q 442 549 440 529 l 437 499 q 436 494 432 490 q 429 487 424 487 l 310 487 q 305 487 302 490 q 299 494 300 499 l 303 521 q 306 548 296 566 q 285 584 269 584 q 247 584 232 566 q 216 549 212 521 l 200 420 q 199 417 201 416 q 203 416 206 418 q 241 446 282 446 q 345 446 380 406 q 416 366 416 298 q 416 284 415 277 q 416 260 412 218 z m 274 228 q 278 258 278 290 q 278 313 268 326 q 258 339 240 339 q 220 339 206 326 q 192 312 187 288 q 178 239 176 228 q 174 208 172 166 q 171 140 182 126 q 192 112 212 112 q 231 112 245 127 q 259 142 265 169 q 272 211 274 228 z"},"r":{"x_min":0,"x_max":315,"ha":315,"o":"m 344 510 q 351 504 348 495 l 315 378 q 313 367 300 370 q 291 374 275 374 q 260 374 249 370 q 226 366 210 342 q 194 319 190 288 l 156 13 q 155 8 152 4 q 148 1 143 1 l 29 1 q 24 1 21 4 q 18 8 19 13 l 79 502 q 80 507 84 510 q 87 514 92 514 l 206 514 q 211 514 214 510 q 217 507 216 502 l 211 463 q 210 459 212 458 q 214 458 216 461 q 248 520 304 520 q 331 520 344 510 z"},"2":{"x_min":0,"x_max":425,"ha":425,"o":"m 189 121 l 392 121 q 397 121 400 118 q 403 114 402 109 l 390 12 q 390 7 386 4 q 382 0 377 0 l 18 0 q 13 0 10 4 q 7 7 8 12 l 21 113 q 21 121 27 128 q 58 165 90 200 q 191 315 233 371 q 304 469 304 533 q 304 559 293 573 q 282 587 263 587 q 240 587 224 568 q 209 550 207 521 l 202 480 q 201 475 197 472 q 193 468 188 468 l 73 468 q 68 468 65 472 q 62 475 63 480 l 69 527 q 83 609 142 658 q 201 708 284 708 q 357 708 400 664 q 444 620 444 546 q 444 537 442 515 q 435 463 413 416 q 391 370 349 315 q 303 257 238 185 q 226 170 213 156 q 200 142 187 127 q 185 125 186 123 q 187 121 189 121 z"},"{":{"x_min":0,"x_max":334,"ha":334,"o":"m 70 -47 q 70 -39 72 -23 l 97 184 q 99 202 99 208 q 99 267 53 273 q 41 274 43 286 l 54 373 q 54 378 58 382 q 61 385 66 386 q 123 393 133 474 l 158 677 q 165 735 200 768 q 236 800 293 800 l 374 800 q 379 800 382 796 q 385 793 384 788 l 372 691 q 371 686 368 682 q 364 679 359 679 l 341 679 q 321 679 306 662 q 291 644 287 616 l 267 455 q 257 361 198 333 q 194 330 198 327 q 238 303 238 237 q 238 215 236 203 l 216 38 q 215 34 215 25 q 215 2 226 -12 q 237 -25 255 -25 l 272 -25 q 283 -25 283 -37 l 271 -135 q 270 -140 266 -144 q 262 -147 257 -147 l 177 -147 q 125 -147 98 -121 q 70 -95 70 -47 z"},"9":{"x_min":0,"x_max":422,"ha":422,"o":"m 185 -8 q 113 -8 70 32 q 27 73 27 142 q 27 151 29 171 l 32 201 q 33 206 37 210 q 41 213 46 213 l 159 213 q 164 213 167 210 q 170 206 169 201 l 167 179 q 166 174 166 166 q 166 144 176 130 q 186 116 200 116 q 222 116 237 134 q 252 151 256 179 l 268 279 q 269 282 267 282 q 265 283 262 281 q 228 254 187 254 q 124 254 88 294 q 52 335 52 404 l 53 423 q 53 440 57 482 q 63 521 67 542 q 79 620 134 664 q 189 708 271 708 q 348 708 391 670 q 434 631 434 554 q 434 516 431 494 l 393 171 q 383 89 326 40 q 270 -8 185 -8 z m 292 472 q 296 504 297 534 q 298 560 288 574 q 277 588 257 588 q 238 588 224 573 q 210 558 204 531 q 199 508 195 472 q 191 444 190 410 q 191 387 201 374 q 211 361 230 361 q 249 361 262 374 q 276 388 282 412 q 286 428 292 472 z"}," ":{"x_min":0,"x_max":194,"ha":194,"o":""},"I":{"x_min":0,"x_max":223,"ha":223,"o":"m 25 12 l 108 688 q 109 693 112 696 q 116 700 121 700 l 234 700 q 245 700 245 688 l 162 12 q 161 7 157 4 q 153 0 148 0 l 35 0 q 30 0 27 4 q 24 7 25 12 z"},"H":{"x_min":0,"x_max":466,"ha":466,"o":"m 364 700 l 478 700 q 483 700 486 696 q 489 693 488 688 l 405 12 q 404 7 400 4 q 397 0 392 0 l 278 0 q 273 0 270 4 q 267 7 268 12 l 302 285 q 302 290 298 290 l 201 290 q 195 290 195 285 l 162 12 q 161 7 157 4 q 153 0 148 0 l 35 0 q 30 0 27 4 q 24 7 25 12 l 108 688 q 109 693 112 696 q 116 700 121 700 l 234 700 q 245 700 245 688 l 211 416 q 211 411 215 411 l 312 411 q 316 411 318 416 l 351 688 q 352 693 356 696 q 359 700 364 700 z"},"4":{"x_min":0,"x_max":469,"ha":469,"o":"m 472 292 l 460 189 q 459 184 456 180 q 452 177 447 177 l 417 177 q 411 177 411 172 l 391 12 q 391 7 387 4 q 383 0 378 0 l 265 0 q 260 0 257 4 q 254 7 255 12 l 274 172 q 276 177 270 177 l 28 177 q 17 177 17 189 l 27 271 l 31 286 l 210 690 q 215 700 224 700 l 347 700 q 353 700 356 696 q 358 693 355 686 l 192 310 q 191 304 195 304 l 286 304 q 291 304 291 309 l 304 413 q 305 418 308 422 q 312 425 317 425 l 430 425 q 435 425 438 422 q 442 418 441 413 l 428 309 q 428 304 432 304 l 462 304 q 467 304 470 300 q 473 297 472 292 z"},"~":{"x_min":0,"x_max":475,"ha":475,"o":"m 247 229 q 242 233 229 242 q 216 251 205 256 q 194 260 183 260 q 165 260 148 250 q 130 240 117 223 q 109 213 101 219 l 44 257 q 37 263 40 273 q 61 320 102 350 q 142 381 185 381 q 207 381 224 374 q 240 368 259 356 q 284 339 298 332 q 312 324 329 324 q 345 324 358 333 q 372 342 386 359 q 393 369 403 363 l 462 322 q 467 320 467 313 q 467 308 465 305 q 437 261 400 232 q 364 202 324 202 q 302 202 286 208 q 270 215 247 229 z"},"D":{"x_min":0,"x_max":462,"ha":462,"o":"m 25 12 l 108 688 q 109 693 112 696 q 116 700 121 700 l 296 700 q 377 700 424 656 q 470 611 470 536 q 470 526 468 506 l 429 194 q 418 106 358 53 q 299 0 210 0 l 35 0 q 30 0 27 4 q 24 7 25 12 z m 180 121 l 224 122 q 250 123 270 145 q 289 167 294 203 l 330 497 q 331 503 331 514 q 331 544 318 562 q 304 579 279 579 l 236 579 q 231 579 231 574 l 176 126 q 174 121 180 121 z"},"^":{"x_min":0,"x_max":410,"ha":410,"o":"m 46 312 l 209 690 q 214 700 223 700 l 318 700 q 327 700 329 690 l 402 312 l 402 309 q 402 304 399 301 q 396 298 391 298 l 299 298 q 294 298 291 301 q 288 304 287 308 l 254 538 q 254 541 252 541 q 250 541 248 538 l 159 308 q 154 298 144 298 l 54 298 q 48 298 46 302 q 43 305 46 312 z"},"0":{"x_min":0,"x_max":439,"ha":439,"o":"m 31 158 q 31 169 33 191 l 72 509 q 83 600 142 656 q 202 711 287 711 q 365 711 410 666 q 455 620 455 542 q 455 531 453 509 l 414 191 q 404 100 344 44 q 284 -11 198 -11 q 121 -11 76 35 q 31 81 31 158 z m 277 183 l 318 517 q 319 522 319 531 q 319 558 306 574 q 294 590 272 590 q 248 590 231 570 q 214 550 210 517 l 169 183 q 168 178 168 168 q 168 142 180 126 q 192 110 213 110 q 238 110 255 130 q 272 150 277 183 z"},"F":{"x_min":0,"x_max":408,"ha":408,"o":"m 438 579 l 236 579 q 231 579 231 574 l 211 416 q 211 411 215 411 l 331 411 q 336 411 339 408 q 342 404 341 399 l 329 302 q 328 297 324 294 q 321 290 316 290 l 201 290 q 195 290 195 285 l 162 12 q 161 7 157 4 q 153 0 148 0 l 35 0 q 30 0 27 4 q 24 7 25 12 l 108 688 q 109 693 112 696 q 116 700 121 700 l 453 700 q 458 700 461 696 q 464 693 463 688 l 451 591 q 450 586 446 582 q 443 579 438 579 z"},"`":{"x_min":0,"x_max":213,"ha":213,"o":""},"k":{"x_min":0,"x_max":436,"ha":436,"o":"m 19 12 l 102 688 q 103 693 106 696 q 110 700 115 700 l 229 700 q 234 700 237 696 q 240 693 239 688 l 198 357 q 197 353 200 352 q 202 352 204 355 l 307 506 q 311 514 322 514 l 439 514 q 445 514 447 510 q 449 506 445 500 l 319 332 q 317 328 317 325 l 397 14 l 398 10 q 398 0 386 0 l 269 0 q 260 0 257 10 l 220 208 q 219 211 217 212 q 215 212 214 209 l 175 157 q 173 153 173 151 l 156 12 q 155 7 152 4 q 148 0 143 0 l 29 0 q 24 0 21 4 q 18 7 19 12 z"},"u":{"x_min":0,"x_max":433,"ha":433,"o":"m 315 514 l 429 514 q 434 514 437 510 q 440 507 439 502 l 379 12 q 378 7 374 4 q 371 0 366 0 l 252 0 q 247 0 244 4 q 241 7 242 12 l 244 29 q 245 32 243 33 q 241 34 239 31 q 207 -7 147 -7 q 95 -7 62 22 q 29 52 29 113 q 29 122 31 142 l 75 502 q 76 507 80 510 q 83 514 88 514 l 202 514 q 207 514 210 510 q 213 507 212 502 l 172 173 q 171 168 171 158 q 171 136 180 124 q 190 113 208 113 q 230 113 244 130 q 258 147 262 176 l 302 502 q 303 507 306 510 q 310 514 315 514 z"},"]":{"x_min":0,"x_max":334,"ha":334,"o":"m 257 -147 l 60 -147 q 49 -147 49 -135 l 61 -37 q 62 -32 66 -28 q 70 -25 75 -25 l 142 -25 q 148 -25 148 -20 l 233 674 q 233 679 229 679 l 161 679 q 156 679 153 682 q 150 686 151 691 l 163 788 q 164 793 168 796 q 171 800 176 800 l 374 800 q 379 800 382 796 q 385 793 384 788 l 271 -135 q 270 -140 266 -144 q 262 -147 257 -147 z"},"U":{"x_min":0,"x_max":465,"ha":465,"o":"m 43 163 q 43 187 45 199 l 105 688 q 106 693 110 696 q 113 700 118 700 l 231 700 q 242 700 242 688 l 180 185 q 179 180 179 171 q 179 145 192 129 q 205 113 227 113 q 252 113 270 133 q 287 153 291 185 l 353 688 q 354 693 358 696 q 361 700 366 700 l 480 700 q 485 700 488 696 q 491 693 490 688 l 430 199 q 419 105 359 48 q 299 -8 212 -8 q 134 -8 88 38 q 43 85 43 163 z"},"o":{"x_min":0,"x_max":429,"ha":429,"o":"m 29 135 q 29 151 30 160 l 54 354 q 63 430 118 476 q 174 522 259 522 q 338 522 382 484 q 426 445 426 379 q 426 370 424 354 l 400 160 q 390 82 336 37 q 281 -8 194 -8 q 116 -8 72 30 q 29 68 29 135 z m 264 171 l 286 344 q 289 369 277 385 q 265 401 244 401 q 223 401 208 385 q 193 369 190 344 l 168 171 q 165 146 176 130 q 188 114 209 114 q 230 114 246 130 q 261 146 264 171 z"},"N":{"x_min":0,"x_max":499,"ha":499,"o":"m 398 700 l 511 700 q 516 700 519 696 q 522 693 521 688 l 438 12 q 437 7 434 4 q 430 0 425 0 l 297 0 q 288 0 285 10 l 213 397 q 212 400 210 400 q 207 399 207 396 l 161 12 q 160 7 156 4 q 152 0 147 0 l 35 0 q 30 0 27 4 q 24 7 25 12 l 108 688 q 109 693 112 696 q 116 700 121 700 l 248 700 q 257 700 259 690 l 333 303 q 334 300 336 300 q 339 301 339 304 l 385 688 q 386 693 390 696 q 393 700 398 700 z"},"+":{"x_min":0,"x_max":425,"ha":425,"o":"m 426 352 l 416 270 q 415 265 412 262 q 408 258 403 258 l 281 258 q 276 258 276 253 l 260 128 q 259 123 256 120 q 252 116 247 116 l 168 116 q 163 116 160 120 q 156 123 157 128 l 173 253 q 173 258 168 258 l 47 258 q 42 258 39 262 q 36 265 37 270 l 47 352 q 48 357 52 360 q 55 364 60 364 l 181 364 q 187 364 187 369 l 202 495 q 203 500 207 504 q 211 507 216 507 l 295 507 q 300 507 303 504 q 306 500 305 495 l 290 369 q 288 364 294 364 l 416 364 q 421 364 424 360 q 427 357 426 352 z"},"G":{"x_min":0,"x_max":453,"ha":453,"o":"m 34 152 q 34 161 36 181 l 77 519 q 87 605 146 656 q 206 708 294 708 q 373 708 420 664 q 466 621 466 547 q 466 538 464 518 l 460 480 q 459 475 455 472 q 451 468 446 468 l 333 468 q 328 468 325 472 q 322 475 323 480 l 328 520 q 329 524 329 532 q 329 557 316 572 q 302 587 279 587 q 254 587 236 568 q 218 550 214 520 l 172 180 q 169 150 182 132 q 195 113 220 113 q 246 113 264 132 q 282 150 286 180 l 296 260 q 296 265 292 265 l 249 265 q 244 265 241 268 q 238 272 239 277 l 250 366 q 250 371 254 374 q 258 378 263 378 l 435 378 q 446 378 446 366 l 423 181 q 413 95 353 44 q 293 -8 206 -8 q 126 -8 80 35 q 34 78 34 152 z"},"q":{"x_min":0,"x_max":435,"ha":435,"o":"m 313 514 l 427 514 q 432 514 435 510 q 438 507 437 502 l 354 -174 q 353 -179 350 -182 q 346 -186 341 -186 l 227 -186 q 222 -186 219 -182 q 216 -179 217 -174 l 242 29 q 243 32 241 32 q 239 33 236 31 q 215 9 191 0 q 167 -8 145 -8 q 87 -8 58 26 q 28 59 28 122 q 28 147 30 160 l 54 355 q 64 433 104 478 q 143 522 210 522 q 263 522 292 485 q 294 483 296 484 q 298 484 298 487 l 300 502 q 301 507 304 510 q 308 514 313 514 z m 258 158 l 282 357 q 282 377 271 390 q 260 402 242 402 q 222 402 208 386 q 193 370 190 344 l 168 171 q 165 145 176 129 q 187 113 207 113 q 224 113 238 126 q 253 138 258 158 z"},"d":{"x_min":0,"x_max":432,"ha":432,"o":"m 336 700 l 450 700 q 455 700 458 696 q 461 693 460 688 l 377 12 q 376 7 372 4 q 369 0 364 0 l 250 0 q 245 0 242 4 q 239 7 240 12 l 242 28 q 243 31 241 32 q 239 32 236 30 q 199 -8 145 -8 q 86 -8 57 26 q 28 61 28 123 q 28 147 30 160 l 54 354 q 64 435 104 478 q 144 522 210 522 q 232 522 254 514 q 276 505 292 483 q 294 481 296 482 q 298 482 298 485 l 323 688 q 324 693 328 696 q 331 700 336 700 z m 258 157 l 282 357 q 282 377 271 389 q 260 401 242 401 q 222 401 208 385 q 193 369 190 344 l 168 170 q 165 145 176 129 q 187 113 207 113 q 224 113 238 125 q 253 137 258 157 z"},"1":{"x_min":0,"x_max":276,"ha":276,"o":"m 178 700 l 295 700 q 306 700 306 688 l 223 12 q 222 7 218 4 q 215 0 210 0 l 96 0 q 91 0 88 4 q 85 7 86 12 l 153 558 q 153 562 149 562 l 73 553 l 71 553 q 61 553 61 564 l 69 650 q 70 660 80 664 l 163 697 q 171 700 178 700 z"},"5":{"x_min":0,"x_max":426,"ha":426,"o":"m 411 218 q 406 178 400 155 q 387 78 333 35 q 279 -8 196 -8 q 118 -8 76 32 q 33 72 33 151 l 34 179 q 36 191 47 191 l 160 191 q 171 191 171 179 l 171 163 q 174 113 211 113 q 230 113 244 126 q 258 140 265 164 q 271 190 274 219 q 277 238 277 270 q 274 317 236 317 q 198 317 184 282 q 179 271 170 271 l 56 271 q 45 271 45 283 l 95 688 q 96 693 100 696 q 103 700 108 700 l 451 700 q 456 700 459 696 q 462 693 461 688 l 449 591 q 448 586 444 582 q 441 579 436 579 l 223 579 q 218 579 218 574 l 197 406 q 197 403 198 402 q 200 401 203 404 q 221 421 244 430 q 268 439 293 439 q 355 439 388 397 q 420 355 415 280 q 415 272 414 254 q 413 235 411 218 z"}}}
